<?xml version="1.0" encoding="UTF-8"?>
<!-- Generator: visioncortex VTracer 0.6.4 -->
<svg version="1.1" xmlns="http://www.w3.org/2000/svg" width="338" height="358">
<path d="M0 0 C111.54 0 223.08 0 338 0 C338 118.14 338 236.28 338 358 C226.46 358 114.92 358 0 358 C0 239.86 0 121.72 0 0 Z " fill="#FCFDFD" transform="translate(0,0)"/>
<path d="M0 0 C3.58992621 0.11744233 7.17175084 0.14348214 10.76342773 0.15454102 C13.04280824 0.18761961 15.32212101 0.22585378 17.60131836 0.26977539 C18.67427658 0.28161362 19.7472348 0.29345184 20.85270691 0.3056488 C28.20800716 0.5882781 28.20800716 0.5882781 31.60839844 3.48681641 C32.90209961 6.17993164 32.90209961 6.17993164 32.90209961 10.17993164 C33.56209961 10.17993164 34.22209961 10.17993164 34.90209961 10.17993164 C35.60556519 11.41296021 35.60556519 11.41296021 36.32324219 12.67089844 C38.07280299 15.73690472 39.82285776 18.80262797 41.57324219 21.86816406 C42.3289726 23.1919451 43.08450918 24.51583681 43.83984375 25.83984375 C44.9290892 27.74907489 46.01904404 29.65789954 47.10913086 31.56665039 C47.44362747 32.15330978 47.77812408 32.73996918 48.12275696 33.34440613 C49.59538879 35.92159871 51.08477997 38.46712274 52.67822266 40.97216797 C53.08210205 41.70072998 53.48598145 42.42929199 53.90209961 43.17993164 C53.27709961 45.11743164 53.27709961 45.11743164 51.90209961 47.17993164 C51.48959961 48.06680664 51.07709961 48.95368164 50.65209961 49.86743164 C48.75174128 53.46453847 46.54882776 56.71069023 44.20678711 60.03149414 C42.93841907 62.12012415 42.34488216 63.79322572 41.90209961 66.17993164 C41.24209961 66.17993164 40.58209961 66.17993164 39.90209961 66.17993164 C39.73709961 67.08743164 39.57209961 67.99493164 39.40209961 68.92993164 C37.70852849 75.02678766 33.36521988 81.71681137 28.90209961 86.17993164 C27.39469273 86.29909415 25.88181081 86.35001248 24.36987305 86.37280273 C23.40507019 86.38886566 22.44026733 86.40492859 21.44622803 86.42147827 C17.01957767 86.46580501 12.59308014 86.50700859 8.16625977 86.5300293 C5.83054637 86.54658083 3.49488346 86.57385996 1.15942383 86.61206055 C-2.20266079 86.66680212 -5.56355521 86.68870164 -8.92602539 86.70336914 C-10.49033295 86.7373732 -10.49033295 86.7373732 -12.08624268 86.77206421 C-19.34735057 86.75089153 -19.34735057 86.75089153 -23.19458008 83.82421875 C-25.16815375 81.08232849 -26.68288897 78.43462969 -28.09790039 75.36743164 C-29.8844096 71.613911 -31.71394731 68.04546083 -33.97290039 64.55493164 C-36.09790039 61.17993164 -36.09790039 61.17993164 -36.09790039 59.17993164 C-36.75790039 59.17993164 -37.41790039 59.17993164 -38.09790039 59.17993164 C-38.51040039 58.16930664 -38.92290039 57.15868164 -39.34790039 56.11743164 C-40.47321352 53.41559288 -41.78587205 51.10846384 -43.41040039 48.67993164 C-45.09790039 45.17993164 -45.09790039 45.17993164 -44.53540039 41.61743164 C-43.18433179 38.38661543 -41.75361696 35.26558524 -40.09790039 32.17993164 C-39.43790039 32.17993164 -38.77790039 32.17993164 -38.09790039 32.17993164 C-37.98575195 31.45418945 -37.87360352 30.72844727 -37.75805664 29.98071289 C-37.06828652 27.05429171 -36.04279225 24.95705355 -34.53540039 22.36743164 C-34.08036133 21.57723633 -33.62532227 20.78704102 -33.15649414 19.97290039 C-32.8071582 19.3812207 -32.45782227 18.78954102 -32.09790039 18.17993164 C-31.43790039 18.17993164 -30.77790039 18.17993164 -30.09790039 18.17993164 C-29.91094604 17.13567017 -29.91094604 17.13567017 -29.72021484 16.0703125 C-25.93383906 -1.51576159 -15.93415157 -0.53380559 0 0 Z " fill="#ACD9ED" transform="translate(168.097900390625,13.820068359375)"/>
<path d="M0 0 C7.18274658 -0.51055595 14.36079442 -0.85854665 21.55761719 -1.09863281 C23.99949754 -1.19873634 26.44019247 -1.33489933 28.87792969 -1.50878906 C48.59727307 -2.87930761 48.59727307 -2.87930761 54.27835083 1.92788696 C58.16039597 6.69602799 60.72390544 11.97285428 63.02749634 17.64427185 C64.27041689 20.65503989 65.79993294 23.37519668 67.4375 26.1875 C67.870625 27.00863281 68.30375 27.82976562 68.75 28.67578125 C69.6240609 30.30098824 70.54510063 31.90140339 71.5 33.48046875 C71.974375 34.27066406 72.44875 35.06085938 72.9375 35.875 C73.56978516 36.89207031 73.56978516 36.89207031 74.21484375 37.9296875 C75.25145001 40.6630274 74.81627696 42.2273201 74 45 C72.57630929 48.1568794 71.45246827 50.54753173 69 53 C68.3574765 55.06874034 68.3574765 55.06874034 68 57 C67.34 57 66.68 57 66 57 C65.62875 58.0209375 65.62875 58.0209375 65.25 59.0625 C64.03725782 61.91244412 62.57371453 64.50404191 61.0078125 67.171875 C59.44245158 70.0113669 58.26965425 73.01907264 57 76 C55.4375 78.9375 55.4375 78.9375 54 81 C53.34 81 52.68 81 52 81 C51.505 82.485 51.505 82.485 51 84 C34.17 84 17.34 84 0 84 C-1.98 80.37 -3.96 76.74 -6 73 C-7.8021678 69.86278147 -9.61195834 66.73189613 -11.44921875 63.61523438 C-14 59.21784508 -14 59.21784508 -14 57 C-14.66 57 -15.32 57 -16 57 C-16.4125 55.96875 -16.825 54.9375 -17.25 53.875 C-18.37938236 51.17099801 -19.44663091 49.40449212 -21.25 47 C-23 44 -23 44 -23.0625 40.625 C-21.78212743 36.25667006 -19.92764689 32.51135219 -17 29 C-16.34 29 -15.68 29 -15 29 C-14.85304687 28.46632813 -14.70609375 27.93265625 -14.5546875 27.3828125 C-12.65591016 21.07537972 -9.96781869 15.29410907 -6 10 C-5.34 10 -4.68 10 -4 10 C-3.67 8.02 -3.34 6.04 -3 4 C-2.34 4 -1.68 4 -1 4 C-0.67 2.68 -0.34 1.36 0 0 Z " fill="#8FC0E1" transform="translate(226,61)"/>
<path d="M0 0 C2.17666626 -0.36076355 2.17666626 -0.36076355 4.90869141 -0.34057617 C6.44005234 -0.34023628 6.44005234 -0.34023628 8.00234985 -0.33988953 C9.10759003 -0.32440567 10.2128302 -0.30892181 11.3515625 -0.29296875 C12.4807309 -0.28872391 13.60989929 -0.28447906 14.77328491 -0.28010559 C18.39076273 -0.26327132 22.00768969 -0.22560975 25.625 -0.1875 C28.07290864 -0.17245934 30.52082598 -0.15876986 32.96875 -0.14648438 C38.9793556 -0.11335227 44.98963846 -0.06310579 51 0 C51.495 1.485 51.495 1.485 52 3 C52.66 3 53.32 3 54 3 C54.59425781 4.07894531 55.18851562 5.15789062 55.80078125 6.26953125 C56.63790062 7.78392062 57.47515077 9.29823771 58.3125 10.8125 C58.75311768 11.61260498 59.19373535 12.41270996 59.64770508 13.23706055 C62.07527034 17.62150155 64.5564354 21.96045292 67.1484375 26.25 C67.65592529 27.09715576 68.16341309 27.94431152 68.6862793 28.81713867 C69.67308435 30.45742725 70.67165508 32.09070518 71.68286133 33.71606445 C75.01722912 39.2865116 75.01722912 39.2865116 74.93359375 42.75 C74.62550781 43.4925 74.31742187 44.235 74 45 C73.53207031 46.15048828 73.53207031 46.15048828 73.0546875 47.32421875 C70.32869313 52.78523397 67.24959272 57.7465982 63.6484375 62.67578125 C60.41948564 67.16086548 60.41948564 67.16086548 58.4375 72.25 C58.293125 72.8275 58.14875 73.405 58 74 C57.01 74.495 57.01 74.495 56 75 C54.87293294 77.11015954 54.87293294 77.11015954 53.875 79.5625 C53.52179688 80.38878906 53.16859375 81.21507812 52.8046875 82.06640625 C52.53914063 82.70449219 52.27359375 83.34257812 52 84 C44.95259884 84.10137004 37.90538548 84.17145284 30.85742188 84.21972656 C28.45956394 84.23984936 26.06175512 84.26715059 23.6640625 84.30175781 C20.21862677 84.3502449 16.77383948 84.37296241 13.328125 84.390625 C11.71855927 84.42159271 11.71855927 84.42159271 10.07647705 84.45318604 C8.57537384 84.45363922 8.57537384 84.45363922 7.04394531 84.45410156 C6.16458313 84.46298401 5.28522095 84.47186646 4.37921143 84.48101807 C-0.10858383 83.57369618 -2.44224988 79.62850866 -4.875 76 C-7.80547359 71.51593362 -10.14543413 66.82815065 -12.4765625 62.01171875 C-14.4094967 58.19045652 -16.61428069 54.58044752 -18.8984375 50.9609375 C-20 49 -20 49 -20 47 C-20.66 47 -21.32 47 -22 47 C-23.56376036 41.22611559 -23.56376036 41.22611559 -22.12890625 38.10546875 C-21.268077 36.78874862 -20.38379539 35.48715505 -19.48046875 34.19921875 C-16.89840119 30.36358805 -15.00282419 26.15905619 -13 22 C-12.34 22 -11.68 22 -11 22 C-10.88785156 21.27425781 -10.77570312 20.54851562 -10.66015625 19.80078125 C-9.97038613 16.87436007 -8.94489186 14.77712191 -7.4375 12.1875 C-6.98246094 11.39730469 -6.52742188 10.60710937 -6.05859375 9.79296875 C-5.70925781 9.20128906 -5.35992187 8.60960938 -5 8 C-4.34 8 -3.68 8 -3 8 C-2.87625 7.236875 -2.7525 6.47375 -2.625 5.6875 C-2 3 -2 3 0 0 Z " fill="#8BBEE0" transform="translate(66,61)"/>
<path d="M0 0 C2.10313253 -0.06021186 4.20729032 -0.08951552 6.3112793 -0.09423828 C7.98156441 -0.11564377 7.98156441 -0.11564377 9.68559265 -0.13748169 C12.0434077 -0.15842629 14.40137418 -0.16594781 16.75927734 -0.16113281 C20.36315338 -0.16452972 23.96040546 -0.24235952 27.56323242 -0.32470703 C29.85423051 -0.33578525 32.14525513 -0.34244026 34.4362793 -0.34423828 C35.51146317 -0.37500458 36.58664703 -0.40577087 37.69441223 -0.43746948 C45.02589871 -0.32535887 45.02589871 -0.32535887 48.06253052 2.67852783 C49.60367496 4.96473691 50.86966516 7.23277653 52.07299805 9.71044922 C52.6762793 10.71076172 53.27956055 11.71107422 53.90112305 12.74169922 C54.86064477 14.407682 55.81895017 16.07436583 56.77612305 17.74169922 C57.92657236 19.8459528 57.92657236 19.8459528 60.07299805 20.71044922 C60.78393555 22.53076172 60.78393555 22.53076172 61.44799805 24.83544922 C62.43823055 28.01942758 63.55338049 30.78264589 65.26049805 33.64794922 C67.07299805 36.71044922 67.07299805 36.71044922 67.07299805 38.71044922 C67.73299805 38.71044922 68.39299805 38.71044922 69.07299805 38.71044922 C70.00699291 41.58427957 70.56925867 43.72021179 69.17114258 46.51000977 C68.74945801 47.13689697 68.32777344 47.76378418 67.89331055 48.40966797 C67.43384033 49.11075684 66.97437012 49.8118457 66.50097656 50.53417969 C66.02974365 51.25234863 65.55851074 51.97051758 65.07299805 52.71044922 C63.398716 55.46452422 61.76789518 58.24387703 60.13549805 61.02294922 C59.70164795 61.75989014 59.26779785 62.49683105 58.82080078 63.25610352 C55.87504135 68.28206198 53.03885739 73.35447189 50.3269043 78.51123047 C49.0151906 80.81183736 47.86842085 82.75425147 46.07299805 84.71044922 C43.77607727 85.19146729 43.77607727 85.19146729 41.05078125 85.16455078 C40.02994949 85.16424866 39.00911774 85.16394653 37.95735168 85.16363525 C36.8572728 85.14299011 35.75719391 85.12234497 34.6237793 85.10107422 C33.49602585 85.09541443 32.3682724 85.08975464 31.2063446 85.08392334 C27.5989667 85.06150553 23.99257651 85.01129706 20.38549805 84.96044922 C17.942153 84.94039131 15.49879241 84.92213931 13.05541992 84.90576172 C7.06094143 84.86162301 1.06704029 84.79465653 -4.92700195 84.71044922 C-5.33950195 83.96585449 -5.75200195 83.22125977 -6.17700195 82.45410156 C-7.74478506 79.62518042 -9.31383233 76.79696338 -10.88305664 73.96884155 C-11.92280681 72.09301771 -12.96020376 70.21590725 -13.99731445 68.33862305 C-18.26600062 60.61623485 -18.26600062 60.61623485 -22.73950195 53.01123047 C-23.11977539 52.37975098 -23.50004883 51.74827148 -23.8918457 51.09765625 C-24.84854097 49.52678066 -25.82444611 47.9676476 -26.80200195 46.40966797 C-28.21539322 43.01851046 -27.96106976 41.20223166 -26.92700195 37.71044922 C-25.30573521 35.67347305 -23.63840665 33.67230338 -21.92700195 31.71044922 C-21.21537753 30.06247686 -20.53668242 28.39879514 -19.92700195 26.71044922 C-19.26700195 26.05044922 -18.60700195 25.39044922 -17.92700195 24.71044922 C-17.27547257 23.1330623 -16.62475043 21.5553378 -15.9777832 19.97607422 C-13.68002968 15.02181012 -10.73210966 10.38987889 -7.92700195 5.71044922 C-7.62834229 4.84291016 -7.32968262 3.97537109 -7.02197266 3.08154297 C-4.48446993 0.20959023 -3.71394635 0.28997867 0 0 Z " fill="#E7B657" transform="translate(150.927001953125,105.28955078125)"/>
<path d="M0 0 C2.12678334 -0.08697523 4.25531404 -0.13638325 6.38378906 -0.15551758 C8.0781308 -0.18903069 8.0781308 -0.18903069 9.80670166 -0.22322083 C12.19712678 -0.25797389 14.58783984 -0.27624509 16.97851562 -0.27929688 C20.62631235 -0.29991823 24.26176778 -0.42156523 27.90722656 -0.5480957 C44.33784425 -0.82172994 44.33784425 -0.82172994 48.76333618 2.13113403 C51.99546914 5.54666395 53.40341919 9.45946035 54.89941406 13.88745117 C55.92846603 15.84292159 56.98569017 17.78419585 58.08691406 19.69995117 C58.55742187 20.58424805 59.02792969 21.46854492 59.51269531 22.37963867 C61.18865666 25.41053214 63.05653476 28.27973696 65.01660156 31.13354492 C65.89941406 32.88745117 65.89941406 32.88745117 65.89941406 36.88745117 C66.55941406 36.88745117 67.21941406 36.88745117 67.89941406 36.88745117 C69.97384251 40.30415686 69.97384251 40.30415686 69.67626953 42.63623047 C68.61335019 45.71642509 67.0487874 48.3424979 65.40722656 51.15698242 C65.06061981 51.75621017 64.71401306 52.35543793 64.35690308 52.9728241 C63.25069039 54.88459043 62.13822025 56.79260025 61.02441406 58.69995117 C59.91807712 60.59677045 58.81332108 62.49442544 57.71334839 64.39494324 C56.71044156 66.12754903 55.70181438 67.85683994 54.69287109 69.5859375 C52.86670105 72.94767145 51.40317133 76.37219742 49.89941406 79.88745117 C48.62825012 82.56420898 48.62825012 82.56420898 46.89941406 84.88745117 C44.56452942 85.48872375 44.56452942 85.48872375 41.78540039 85.45507812 C40.74454788 85.45470047 39.70369537 85.45432281 38.63130188 85.45393372 C37.50934921 85.42812729 36.38739655 85.40232086 35.23144531 85.37573242 C34.08149582 85.36865768 32.93154633 85.36158295 31.74674988 85.35429382 C28.06781416 85.32626779 24.39039106 85.26350965 20.71191406 85.19995117 C18.22039956 85.17487912 15.72886124 85.15206406 13.23730469 85.1315918 C7.12415693 85.07641406 1.01189353 84.9927046 -5.10058594 84.88745117 C-5.44063156 84.20146851 -5.78067719 83.51548584 -6.13102722 82.80871582 C-6.57884048 81.90850708 -7.02665375 81.00829834 -7.48803711 80.08081055 C-7.93120773 79.18857788 -8.37437836 78.29634521 -8.83097839 77.3770752 C-10.23333756 74.62713323 -11.77120559 72.00088345 -13.41308594 69.38745117 C-16.10058594 65.10911364 -16.10058594 65.10911364 -16.10058594 62.88745117 C-16.76058594 62.88745117 -17.42058594 62.88745117 -18.10058594 62.88745117 C-18.75027344 61.30963867 -18.75027344 61.30963867 -19.41308594 59.69995117 C-20.41623826 57.34015476 -21.46002088 55.28839293 -22.78808594 53.07495117 C-24.10058594 50.88745117 -24.10058594 50.88745117 -24.10058594 48.88745117 C-24.76058594 48.88745117 -25.42058594 48.88745117 -26.10058594 48.88745117 C-27.73997556 44.65955162 -28.40208692 42.86289554 -27.03808594 38.44995117 C-24.61812149 33.67455466 -21.78917086 29.03065511 -18.47558594 24.82495117 C-16.92392591 22.63852113 -15.99260885 20.35143115 -14.97949219 17.87963867 C-13.29913195 14.07082214 -11.23375473 10.45884708 -9.10058594 6.88745117 C-8.64901123 5.87134766 -8.19743652 4.85524414 -7.73217773 3.80834961 C-4.76919853 0.51963237 -4.19611538 0.40817313 0 0 Z " fill="#3875AF" transform="translate(151.1005859375,195.112548828125)"/>
<path d="M0 0 C2.46859873 0.06524431 4.93736192 0.12455379 7.40625 0.17773438 C13.44109905 0.32064895 19.46978961 0.53779404 25.5 0.8125 C26.44905599 2.49755859 27.39811198 4.18261719 28.34716797 5.86767578 C29.18800934 7.36044037 29.18800934 7.36044037 30.0458374 8.88336182 C31.20326881 10.9386268 32.35991595 12.9943335 33.51611328 15.05029297 C37.46922428 22.05610482 41.5120586 29.00065969 45.75585938 35.83496094 C47.79789501 39.21518921 48.5 40.74349202 48.5 44.8125 C47.84 44.8125 47.18 44.8125 46.5 44.8125 C46.23356689 45.52188721 45.96713379 46.23127441 45.69262695 46.9621582 C44.45331905 49.92406603 43.00420991 52.62707664 41.41796875 55.41796875 C40.81533203 56.48466797 40.21269531 57.55136719 39.59179688 58.65039062 C38.96337891 59.75576172 38.33496094 60.86113281 37.6875 62 C36.44953771 64.17969328 35.21382902 66.36066816 33.98046875 68.54296875 C33.43285889 69.50614014 32.88524902 70.46931152 32.32104492 71.46166992 C29.93475101 75.85259149 27.73493136 80.34263729 25.5 84.8125 C8.34 84.8125 -8.82 84.8125 -26.5 84.8125 C-32.5 73.8125 -32.5 73.8125 -32.5 71.8125 C-33.16 71.8125 -33.82 71.8125 -34.5 71.8125 C-34.933125 70.760625 -35.36625 69.70875 -35.8125 68.625 C-36.81565232 66.26520359 -37.85943495 64.21344175 -39.1875 62 C-40.5 59.8125 -40.5 59.8125 -40.5 57.8125 C-41.16 57.8125 -41.82 57.8125 -42.5 57.8125 C-42.9125 56.78125 -43.325 55.75 -43.75 54.6875 C-44.88744328 51.94005247 -45.89258034 50.32442715 -47.8125 47.9375 C-49.97080681 43.94063553 -49.40963403 41.94388975 -48.37109375 37.66796875 C-47.93990234 36.74951172 -47.93990234 36.74951172 -47.5 35.8125 C-46.015 35.3175 -46.015 35.3175 -44.5 34.8125 C-43.58237695 32.88159039 -43.58237695 32.88159039 -43 30.5625 C-41.90217659 26.95865037 -40.77203208 23.87480411 -38.5 20.8125 C-37.84 20.8125 -37.18 20.8125 -36.5 20.8125 C-36.22091797 19.79953857 -35.94183594 18.78657715 -35.65429688 17.74291992 C-35.27116239 16.43230201 -34.88635112 15.1221733 -34.5 13.8125 C-33.99823242 12.08060425 -33.99823242 12.08060425 -33.48632812 10.3137207 C-27.38621885 -3.88950352 -13.36193674 -0.61082633 0 0 Z " fill="#3876B0" transform="translate(92.5,150.1875)"/>
<path d="M0 0 C7.18975017 -0.12670151 14.37921288 -0.21430998 21.56982422 -0.2746582 C24.01622272 -0.29981355 26.46254599 -0.33394166 28.90869141 -0.37719727 C32.42369131 -0.43780071 35.93769829 -0.46620021 39.453125 -0.48828125 C40.5480426 -0.51408768 41.64296021 -0.5398941 42.77105713 -0.56648254 C50.37324555 -0.56929517 50.37324555 -0.56929517 53.62841797 2.38745117 C54.08104004 3.24959229 54.53366211 4.1117334 55 5 C55.49242187 5.75539062 55.98484375 6.51078125 56.4921875 7.2890625 C59.55642018 12.46536516 62.5055033 17.68630219 65.33984375 22.9921875 C66.58197105 25.2426299 67.85706198 27.43825059 69.19140625 29.6328125 C69.56346191 30.25381836 69.93551758 30.87482422 70.31884766 31.51464844 C71.05015835 32.73083951 71.7929209 33.9402364 72.54833984 35.14160156 C74.06877787 37.69158703 75.00812515 39.52283224 74.95703125 42.5234375 C73.72813381 45.70352313 72.09313584 48.38136 70.25 51.25 C64.46110225 60.24456749 64.46110225 60.24456749 59.875 69.875 C59 72 59 72 56 75 C54.68 77.97 53.36 80.94 52 84 C34.84 84 17.68 84 0 84 C-1.98 80.37 -3.96 76.74 -6 73 C-6.78375 71.659375 -7.5675 70.31875 -8.375 68.9375 C-10 66 -10 66 -10 64 C-10.66 64 -11.32 64 -12 64 C-12.350625 63.0925 -12.70125 62.185 -13.0625 61.25 C-15.07467779 56.49659449 -17.79839766 52.17098781 -20.4765625 47.76953125 C-21.79020902 45.38138924 -22.71377628 43.68825811 -23 41 C-22.27272937 38.49778218 -21.13552032 36.36188227 -20 34 C-19.34 34 -18.68 34 -18 34 C-17.79375 33.030625 -17.5875 32.06125 -17.375 31.0625 C-16.21560203 26.9801128 -14.07550856 23.98516619 -11.65234375 20.54296875 C-9.1852364 16.74607304 -7.31472528 12.69586051 -5.39453125 8.6015625 C-4.11332486 6.21141276 -2.91980973 4.84950684 -1 3 C-0.67 2.01 -0.34 1.02 0 0 Z " fill="#3977B0" transform="translate(226,151)"/>
<path d="M0 0 C1.65 0 3.3 0 5 0 C7.16286319 7.96899594 9.29830289 15.91693875 11 24 C12.57913867 20.08648243 13.90381068 16.75577326 14.4375 12.5625 C15.16466133 7.95714488 16.96889579 4.16612538 19 0 C20.65 0 22.3 0 24 0 C27.23376436 7.76103446 29.05023135 15.84462249 31 24 C34.23376436 16.23896554 36.05023135 8.15537751 38 0 C39.65 0 41.3 0 43 0 C42.27916556 3.96830504 41.21781456 7.76232567 40.0625 11.625 C38.50602379 16.98807564 37.27871478 22.28128266 36.39453125 27.79296875 C36 30 36 30 35 33 C33.02 33 31.04 33 29 33 C26.88089372 28.21715732 25.67061582 23.2381419 24.375 18.1875 C24.03082031 16.86202148 24.03082031 16.86202148 23.6796875 15.50976562 C23.11687205 13.3405811 22.55707066 11.17066561 22 9 C18.94317553 14.99901802 17.57110936 20.90155318 16.46484375 27.51171875 C16 30 16 30 15 33 C13.02 33 11.04 33 9 33 C6.74835838 26.47023929 4.80662665 19.89142163 2.96484375 13.234375 C2.07017164 10.04807002 2.07017164 10.04807002 0.88671875 7.25390625 C-0.11924255 4.6969033 -0.15562853 2.72349933 0 0 Z " fill="#5584B3" transform="translate(173,316)"/>
<path d="M0 0 C1.98 0 3.96 0 6 0 C7.10675619 2.1862225 8.21044378 4.37390948 9.3125 6.5625 C9.62123047 7.17158203 9.92996094 7.78066406 10.24804688 8.40820312 C11.82101105 11.53757396 13.3103662 14.67298279 14.66796875 17.90234375 C15.69572776 20.81914793 15.69572776 20.81914793 17 22 C17.24234375 21.45472656 17.4846875 20.90945313 17.734375 20.34765625 C18.23710938 19.21650391 18.23710938 19.21650391 18.75 18.0625 C19.11222656 17.24523437 19.47445312 16.42796875 19.84765625 15.5859375 C20.59867446 13.90060172 21.35618159 12.21813797 22.12109375 10.5390625 C22.47300781 9.76304687 22.82492188 8.98703125 23.1875 8.1875 C23.51105469 7.47980469 23.83460937 6.77210938 24.16796875 6.04296875 C24.98180207 4.04468318 25.53203119 2.10349619 26 0 C28.31 0 30.62 0 33 0 C33 10.89 33 21.78 33 33 C31.35 33 29.7 33 28 33 C27.67 26.07 27.34 19.14 27 12 C26.2575 14.041875 25.515 16.08375 24.75 18.1875 C23.06103688 22.83214859 21.27554056 26.28352129 18 30 C15.6640625 29.91796875 15.6640625 29.91796875 13 29 C11.5234375 26.05078125 11.5234375 26.05078125 10.375 22.3125 C8.86199579 17.50439601 7.28615263 13.57230525 5 9 C4.67 16.92 4.34 24.84 4 33 C2.68 33 1.36 33 0 33 C0 22.11 0 11.22 0 0 Z " fill="#5D8AB8" transform="translate(54,316)"/>
<path d="M0 0 C0.66 0.33 1.32 0.66 2 1 C2.33 9.91 2.66 18.82 3 28 C6.16516623 24.38794223 6.16516623 24.38794223 9.31176758 20.75976562 C10.48062437 19.44985213 11.73990102 18.22239523 13 17 C13.99 17 14.98 17 16 17 C14.60669258 20.1857029 12.97103262 22.19822217 10.4375 24.5625 C8.00373705 26.8343494 7.07740206 27.76779382 6 31 C7.28970703 30.98259766 7.28970703 30.98259766 8.60546875 30.96484375 C16.7925052 30.90234729 24.84864083 31.24173403 33 32 C33 32.66 33 33.32 33 34 C23.76 34 14.52 34 5 34 C6.44375 35.753125 7.8875 37.50625 9.375 39.3125 C11.7191944 42.15902177 13.95409884 44.93114826 16 48 C12.81293058 46.56438314 10.37830895 44.79733671 7.75 42.5 C7.04359375 41.8915625 6.3371875 41.283125 5.609375 40.65625 C4 39 4 39 4 37 C3.34 37 2.68 37 2 37 C2.01571045 37.83192871 2.01571045 37.83192871 2.03173828 38.68066406 C2.07342004 41.20372959 2.09936438 43.72672253 2.125 46.25 C2.14175781 47.12269531 2.15851563 47.99539062 2.17578125 48.89453125 C2.18544922 50.16103516 2.18544922 50.16103516 2.1953125 51.453125 C2.21102295 52.61569824 2.21102295 52.61569824 2.22705078 53.80175781 C1.97326556 56.25883539 1.22444152 57.87311542 0 60 C-0.86809439 54.79826905 -1.12515348 49.83021184 -1.0625 44.5625 C-1.05798828 43.83095703 -1.05347656 43.09941406 -1.04882812 42.34570312 C-1.03718148 40.56376581 -1.01925191 38.78187137 -1 37 C-1.66 37 -2.32 37 -3 37 C-3.20625 37.556875 -3.4125 38.11375 -3.625 38.6875 C-4.96846753 40.94696811 -6.05157702 41.9998656 -8.0625 43.625 C-11.00824713 45.67119397 -11.00824713 45.67119397 -12 48 C-12.66 48 -13.32 48 -14 48 C-12 44 -12 44 -4 34 C-13.24 34 -22.48 34 -32 34 C-32 33.01 -32 32.02 -32 31 C-22.76 31 -13.52 31 -4 31 C-9.29607484 24.42776546 -9.29607484 24.42776546 -13.375 21.1875 C-14.24125 20.465625 -15.1075 19.74375 -16 19 C-16 18.34 -16 17.68 -16 17 C-11.92452282 17.52106557 -10.13349573 19.58466672 -7.375 22.5 C-4.49722976 25.66693163 -4.49722976 25.66693163 -1 28 C-1.00785522 26.78098999 -1.00785522 26.78098999 -1.01586914 25.53735352 C-1.03656994 21.87907678 -1.04963803 18.22081233 -1.0625 14.5625 C-1.07087891 13.28310547 -1.07925781 12.00371094 -1.08789062 10.68554688 C-1.09111328 9.47060547 -1.09433594 8.25566406 -1.09765625 7.00390625 C-1.10551147 5.31503296 -1.10551147 5.31503296 -1.11352539 3.59204102 C-1 1 -1 1 0 0 Z " fill="#FAF3E2" transform="translate(171,115)"/>
<path d="M0 0 C0.86367187 -0.00257813 1.72734375 -0.00515625 2.6171875 -0.0078125 C4.98892869 0.11779373 6.90339759 0.2882926 9.125 1.125 C11.15620707 4.17181061 11.37159875 4.72618324 11.3203125 8.13671875 C11.31386719 8.89404297 11.30742187 9.65136719 11.30078125 10.43164062 C11.28402344 11.21732422 11.26726562 12.00300781 11.25 12.8125 C11.24097656 13.60978516 11.23195312 14.40707031 11.22265625 15.22851562 C11.19911585 17.194139 11.16324547 19.15960775 11.125 21.125 C12.115 21.125 13.105 21.125 14.125 21.125 C14.125 22.445 14.125 23.765 14.125 25.125 C10.78247276 25.19927838 8.3214086 25.19046953 5.125 24.125 C4.465 24.455 3.805 24.785 3.125 25.125 C1.06640625 25.328125 1.06640625 25.328125 -1.3125 25.375 C-2.09496094 25.40078125 -2.87742188 25.4265625 -3.68359375 25.453125 C-5.875 25.125 -5.875 25.125 -7.63671875 23.859375 C-9.78736513 20.84711319 -9.43056281 17.67319447 -8.875 14.125 C-7.06336733 11.45068511 -5.99738923 11.16579641 -2.875 10.125 C-1.31381572 10.05759135 0.2500252 10.03985544 1.8125 10.0625 C3.02486328 10.07603516 3.02486328 10.07603516 4.26171875 10.08984375 C5.18404297 10.10724609 5.18404297 10.10724609 6.125 10.125 C5.465 8.475 4.805 6.825 4.125 5.125 C0.495 5.125 -3.135 5.125 -6.875 5.125 C-6.875 3.805 -6.875 2.485 -6.875 1.125 C-4.41490037 -0.10504981 -2.74327194 -0.00814027 0 0 Z " fill="#6695C2" transform="translate(227.875,323.875)"/>
<path d="M0 0 C3.66401256 0.64865294 5.2615637 2.54024352 7.44921875 5.43359375 C7.77921875 5.76359375 8.10921875 6.09359375 8.44921875 6.43359375 C8.44921875 9.07359375 8.44921875 11.71359375 8.44921875 14.43359375 C2.83921875 14.43359375 -2.77078125 14.43359375 -8.55078125 14.43359375 C-8.55078125 15.75359375 -8.55078125 17.07359375 -8.55078125 18.43359375 C-7.56078125 18.76359375 -6.57078125 19.09359375 -5.55078125 19.43359375 C-5.22078125 20.09359375 -4.89078125 20.75359375 -4.55078125 21.43359375 C-0.59078125 21.43359375 3.36921875 21.43359375 7.44921875 21.43359375 C6.44921875 25.43359375 6.44921875 25.43359375 5.44921875 26.43359375 C-0.02610894 27.09669572 -5.01244589 27.35628266 -9.67578125 24.12109375 C-12.6531349 21.33791534 -13.40309855 20.10922439 -13.75390625 16.12890625 C-13.84644001 11.05497201 -13.90232202 7.52992136 -10.55078125 3.43359375 C-10.12152344 2.90636719 -9.69226563 2.37914062 -9.25 1.8359375 C-6.4017568 -0.5146816 -3.55762104 -0.08829133 0 0 Z " fill="#6692BD" transform="translate(107.55078125,323.56640625)"/>
<path d="M0 0 C2.76612918 1.53235669 4.63701521 3.13505942 6 6 C6 8.64 6 11.28 6 14 C0.06 14 -5.88 14 -12 14 C-9.83333333 19.83333333 -9.83333333 19.83333333 -7 21 C-5.12620395 21.07033769 -3.24998898 21.0843022 -1.375 21.0625 C-0.37210937 21.05347656 0.63078125 21.04445313 1.6640625 21.03515625 C2.82035156 21.01775391 2.82035156 21.01775391 4 21 C3.625 22.9375 3.625 22.9375 3 25 C-1.03198137 27.01599068 -5.63640075 26.71192337 -10 26 C-13.1424505 24.25883198 -14.63972155 22.30669315 -16 19 C-16.81072291 13.79213587 -16.97968361 9.09038873 -14.71484375 4.2578125 C-11.00679937 -0.62430515 -5.77427638 -1.11695847 0 0 Z " fill="#638FBD" transform="translate(287,324)"/>
<path d="M0 0 C1.65 0 3.3 0 5 0 C5 4.29 5 8.58 5 13 C5.66 13 6.32 13 7 13 C7.33 12.01 7.66 11.02 8 10 C9.77007714 9.91885894 11.54122098 9.86074495 13.3125 9.8125 C14.79169922 9.76029297 14.79169922 9.76029297 16.30078125 9.70703125 C19 10 19 10 20.65039062 11.19921875 C22.45789878 13.61097348 22.34486269 15.11291814 22.29296875 18.10546875 C22.28330078 19.08837891 22.27363281 20.07128906 22.26367188 21.08398438 C22.23853516 22.10814453 22.21339844 23.13230469 22.1875 24.1875 C22.16719727 25.74114258 22.16719727 25.74114258 22.14648438 27.32617188 C22.11111389 29.88463699 22.06175544 32.4420578 22 35 C20.68 35 19.36 35 18 35 C17.97494385 34.42967041 17.9498877 33.85934082 17.92407227 33.27172852 C17.80843451 30.70173843 17.68556376 28.13214473 17.5625 25.5625 C17.52318359 24.66466797 17.48386719 23.76683594 17.44335938 22.84179688 C17.40146484 21.98779297 17.35957031 21.13378906 17.31640625 20.25390625 C17.27974854 19.46314697 17.24309082 18.6723877 17.20532227 17.85766602 C17.19436743 15.98598559 17.19436743 15.98598559 16 15 C11.98342857 14.77081758 11.98342857 14.77081758 8 15 C5.64641749 17.35358251 5.72128096 17.92968394 5.5859375 21.1328125 C5.54726562 21.93847656 5.50859375 22.74414062 5.46875 23.57421875 C5.4378125 24.41597656 5.406875 25.25773437 5.375 26.125 C5.33632812 26.97449219 5.29765625 27.82398438 5.2578125 28.69921875 C5.16343506 30.79911684 5.08062414 32.89952891 5 35 C3.35 35 1.7 35 0 35 C0 23.45 0 11.9 0 0 Z " fill="#4D80B1" transform="translate(146,314)"/>
<path d="M0 0 C0 1.32 0 2.64 0 4 C-3.96 4 -7.92 4 -12 4 C-12 5.32 -12 6.64 -12 8 C-11.32453125 8.09796875 -10.6490625 8.1959375 -9.953125 8.296875 C-2.74131274 9.50579151 -2.74131274 9.50579151 0.625 11.75 C2.45019387 14.73668088 2.51240422 16.55957166 2 20 C0.625 21.875 0.625 21.875 -1 23 C-1.66 23 -2.32 23 -3 23 C-3 23.66 -3 24.32 -3 25 C-4.77074917 25.02705729 -6.54161711 25.04642195 -8.3125 25.0625 C-9.29863281 25.07410156 -10.28476563 25.08570313 -11.30078125 25.09765625 C-14 25 -14 25 -17 24 C-17 22.35 -17 20.7 -17 19 C-12.38 19 -7.76 19 -3 19 C-4.4547966 14.91256644 -4.4547966 14.91256644 -7.05859375 14.3125 C-8.23615234 14.1578125 -8.23615234 14.1578125 -9.4375 14 C-13.7749797 13.18410752 -13.7749797 13.18410752 -16.0625 11.3125 C-17.42002491 7.96393855 -17.51919301 5.56945196 -17 2 C-12.57834719 -2.42165281 -5.58107398 -1.86035799 0 0 Z " fill="#7EA3C7" transform="translate(139,325)"/>
<path d="M0 0 C1.98 0 3.96 0 6 0 C14.14893617 14.76595745 14.14893617 14.76595745 14 24 C13.34 24 12.68 24 12 24 C9.69 19.05 7.38 14.1 5 9 C4.67 16.92 4.34 24.84 4 33 C2.68 33 1.36 33 0 33 C0 22.11 0 11.22 0 0 Z " fill="#5382B3" transform="translate(54,316)"/>
<path d="M0 0 C2.29296875 0.0390625 2.29296875 0.0390625 5 1 C6.38721973 3.52167058 7.3687731 5.69571202 8.3125 8.375 C8.57611328 9.06078125 8.83972656 9.7465625 9.11132812 10.453125 C10.22425085 13.4247732 11 15.80482639 11 19 C11.66 19 12.32 19 13 19 C13.11214844 18.15179688 13.22429687 17.30359375 13.33984375 16.4296875 C14.04452684 12.76867123 15.18511152 9.58613003 16.5625 6.125 C17.24505859 4.39636719 17.24505859 4.39636719 17.94140625 2.6328125 C18.29074219 1.76398438 18.64007813 0.89515625 19 0 C20.65 0 22.3 0 24 0 C23.22085458 3.82921466 21.68121752 7.23939361 20.125 10.8125 C19.35542969 12.58560547 19.35542969 12.58560547 18.5703125 14.39453125 C18.05210937 15.58433594 17.53390625 16.77414062 17 18 C15.99691686 20.33202662 14.99820327 22.66587799 14 25 C12.35 25 10.7 25 9 25 C8.74605469 24.32453125 8.49210938 23.6490625 8.23046875 22.953125 C7.88628906 22.06109375 7.54210937 21.1690625 7.1875 20.25 C6.85105469 19.36828125 6.51460937 18.4865625 6.16796875 17.578125 C5.12038597 14.98792077 5.12038597 14.98792077 3.4375 13.03125 C1.62226518 10.46624428 1.2906658 8.33968668 0.8125 5.25 C0.65394531 4.26515625 0.49539062 3.2803125 0.33203125 2.265625 C0.22246094 1.51796875 0.11289063 0.7703125 0 0 Z " fill="#5783B2" transform="translate(244,324)"/>
<path d="M0 0 C1.23556641 0.01740234 1.23556641 0.01740234 2.49609375 0.03515625 C3.32238281 0.04417969 4.14867187 0.05320312 5 0.0625 C5.63808594 0.07410156 6.27617187 0.08570313 6.93359375 0.09765625 C5.53984303 2.88515769 3.77114514 2.99031912 0.93359375 4.09765625 C-1.57488143 6.2363313 -1.57488143 6.2363313 -2.06640625 11.09765625 C2.22359375 11.09765625 6.51359375 11.09765625 10.93359375 11.09765625 C10.93359375 11.42765625 10.93359375 11.75765625 10.93359375 12.09765625 C6.64359375 12.09765625 2.35359375 12.09765625 -2.06640625 12.09765625 C-0.54084659 16.90888472 -0.54084659 16.90888472 2.93359375 20.09765625 C4.8073898 20.16799394 6.68360477 20.18195845 8.55859375 20.16015625 C9.56148438 20.15113281 10.564375 20.14210938 11.59765625 20.1328125 C12.75394531 20.11541016 12.75394531 20.11541016 13.93359375 20.09765625 C13.55859375 22.03515625 13.55859375 22.03515625 12.93359375 24.09765625 C8.90161238 26.11364693 4.297193 25.80957962 -0.06640625 25.09765625 C-3.20885675 23.35648823 -4.7061278 21.4043494 -6.06640625 18.09765625 C-7.08133412 11.57803484 -6.89407993 6.59932533 -3.06640625 1.09765625 C-2.06640625 0.09765625 -2.06640625 0.09765625 0 0 Z " fill="#6E99C2" transform="translate(277.06640625,324.90234375)"/>
<path d="M0 0 C0.66 0.33 1.32 0.66 2 1 C2 10.24 2 19.48 2 29 C0.68 29.33 -0.64 29.66 -2 30 C-2 30.66 -2 31.32 -2 32 C-3.14339844 32.06058594 -4.28679687 32.12117188 -5.46484375 32.18359375 C-6.95574305 32.26798428 -8.44662775 32.35263302 -9.9375 32.4375 C-11.06961914 32.49647461 -11.06961914 32.49647461 -12.22460938 32.55664062 C-15.91944187 32.44038024 -15.91944187 32.44038024 -19 34 C-21.18639453 34.07258946 -23.37500389 34.08373783 -25.5625 34.0625 C-27.35880859 34.04896484 -27.35880859 34.04896484 -29.19140625 34.03515625 C-30.11824219 34.02355469 -31.04507813 34.01195312 -32 34 C-32 33.01 -32 32.02 -32 31 C-22.76 31 -13.52 31 -4 31 C-9.29607484 24.42776546 -9.29607484 24.42776546 -13.375 21.1875 C-14.24125 20.465625 -15.1075 19.74375 -16 19 C-16 18.34 -16 17.68 -16 17 C-11.92452282 17.52106557 -10.13349573 19.58466672 -7.375 22.5 C-4.49722976 25.66693163 -4.49722976 25.66693163 -1 28 C-1.00785522 26.78098999 -1.00785522 26.78098999 -1.01586914 25.53735352 C-1.03656994 21.87907678 -1.04963803 18.22081233 -1.0625 14.5625 C-1.07087891 13.28310547 -1.07925781 12.00371094 -1.08789062 10.68554688 C-1.09111328 9.47060547 -1.09433594 8.25566406 -1.09765625 7.00390625 C-1.10551147 5.31503296 -1.10551147 5.31503296 -1.11352539 3.59204102 C-1 1 -1 1 0 0 Z " fill="#F8E1B0" transform="translate(171,115)"/>
<path d="M0 0 C1.65 0 3.3 0 5 0 C5.5345256 1.24420647 6.05208611 2.49570936 6.5625 3.75 C6.85253906 4.44609375 7.14257812 5.1421875 7.44140625 5.859375 C8.07831803 8.30012784 7.80248831 9.6403655 7 12 C6.67 11.01 6.34 10.02 6 9 C4.68 9 3.36 9 2 9 C-0.00662507 15.16702772 -1.52026214 21.25072095 -2.5703125 27.65234375 C-3 30 -3 30 -4 33 C-5.98 33 -7.96 33 -10 33 C-9.38125 32.95875 -8.7625 32.9175 -8.125 32.875 C-5.69295455 32.15699269 -5.69295455 32.15699269 -4.75 29.25 C-4.07881286 26.34152238 -3.82566352 23.96372016 -4 21 C-4.66 21.33 -5.32 21.66 -6 22 C-5.0651711 14.041654 -3.78589999 7.1123461 0 0 Z " fill="#6691BD" transform="translate(192,316)"/>
<path d="M0 0 C0.86367187 -0.00257813 1.72734375 -0.00515625 2.6171875 -0.0078125 C4.98892869 0.11779373 6.90339759 0.2882926 9.125 1.125 C11.15620707 4.17181061 11.37159875 4.72618324 11.3203125 8.13671875 C11.31386719 8.89404297 11.30742187 9.65136719 11.30078125 10.43164062 C11.28402344 11.21732422 11.26726562 12.00300781 11.25 12.8125 C11.24097656 13.60978516 11.23195312 14.40707031 11.22265625 15.22851562 C11.19911585 17.194139 11.16324547 19.15960775 11.125 21.125 C8.1484375 18.4609375 8.1484375 18.4609375 7.9375 15.4375 C7.999375 14.674375 8.06125 13.91125 8.125 13.125 C5.155 12.795 2.185 12.465 -0.875 12.125 C-0.875 11.795 -0.875 11.465 -0.875 11.125 C1.435 11.125 3.745 11.125 6.125 11.125 C5.465 9.145 4.805 7.165 4.125 5.125 C0.495 5.125 -3.135 5.125 -6.875 5.125 C-6.875 3.805 -6.875 2.485 -6.875 1.125 C-4.41490037 -0.10504981 -2.74327194 -0.00814027 0 0 Z " fill="#749BC3" transform="translate(227.875,323.875)"/>
<path d="M0 0 C0.99 0 1.98 0 3 0 C3.06058594 0.90363281 3.12117187 1.80726563 3.18359375 2.73828125 C3.26738281 3.91777344 3.35117188 5.09726562 3.4375 6.3125 C3.55931641 8.07013672 3.55931641 8.07013672 3.68359375 9.86328125 C3.8867371 13.02590958 3.8867371 13.02590958 5 16 C5.02172852 17.99291992 5.02172852 17.99291992 4.87890625 20.23046875 C4.83056641 21.03291016 4.78222656 21.83535156 4.73242188 22.66210938 C4.67634766 23.49548828 4.62027344 24.32886719 4.5625 25.1875 C4.51029297 26.03248047 4.45808594 26.87746094 4.40429688 27.74804688 C4.27476311 29.83236299 4.13806823 31.91623182 4 34 C2.68 34 1.36 34 0 34 C0 22.78 0 11.56 0 0 Z " fill="#4A7DB2" transform="translate(147,315)"/>
<path d="M0 0 C1.00161667 -0.02897369 2.00323334 -0.05794739 3.03520203 -0.08779907 C7.63510176 -0.18502503 12.23483979 -0.25936272 16.83544922 -0.31347656 C19.26156997 -0.3501303 21.68748909 -0.40469338 24.11279297 -0.47753906 C27.60693553 -0.58095977 31.09758037 -0.62540594 34.59301758 -0.65771484 C35.67447556 -0.70102936 36.75593353 -0.74434387 37.87016296 -0.78897095 C45.2549748 -0.77047648 45.2549748 -0.77047648 48.29403687 2.21551514 C49.83690406 4.5044819 51.09970762 6.77367764 52.30004883 9.25634766 C52.90333008 10.25666016 53.50661133 11.25697266 54.12817383 12.28759766 C55.08769555 13.95358043 56.04600095 15.62026426 57.00317383 17.28759766 C58.15362314 19.39185124 58.15362314 19.39185124 60.30004883 20.25634766 C60.92504883 23.31884766 60.92504883 23.31884766 61.30004883 26.25634766 C58.48022013 23.866356 57.76540502 21.90688683 56.85083008 18.36962891 C54.54371069 11.79259169 51.8505736 5.48890519 45.30004883 2.25634766 C37.37485395 0.10029123 29.07646599 0.26051174 20.92504883 0.31884766 C19.28193222 0.31022202 19.28193222 0.31022202 17.60562134 0.30142212 C5.22088002 -0.05448826 5.22088002 -0.05448826 -5.73217773 4.61914062 C-7.50658195 7.13637051 -8.73591701 9.34039624 -9.69995117 12.25634766 C-10.02995117 11.59634766 -10.35995117 10.93634766 -10.69995117 10.25634766 C-9.73901367 8.12744141 -9.73901367 8.12744141 -8.32495117 5.69384766 C-7.8634668 4.88818359 -7.40198242 4.08251953 -6.92651367 3.25244141 C-4.85658374 -0.11613883 -3.91748027 0.11024616 0 0 Z " fill="#F9DE9C" transform="translate(150.699951171875,105.74365234375)"/>
<path d="M0 0 C4.101939 0.01760489 4.95892934 0.14333151 8.3125 2.8125 C8.951875 3.658125 9.59125 4.50375 10.25 5.375 C10.58 5.705 10.91 6.035 11.25 6.375 C11.29092937 8.70797433 11.29241723 11.04205225 11.25 13.375 C6.96 13.375 2.67 13.375 -1.75 13.375 C-1.75 13.045 -1.75 12.715 -1.75 12.375 C2.705 11.88 2.705 11.88 7.25 11.375 C6.87095792 8.08424004 6.87095792 8.08424004 5.25 5.375 C1.23342857 5.14581758 1.23342857 5.14581758 -2.75 5.375 C-4.70216435 7.32716435 -5.59826645 8.90699953 -6.75 11.375 C-7.9375 9.1875 -7.9375 9.1875 -8.75 6.375 C-6.40524487 1.46217973 -5.32640768 0.20486183 0 0 Z " fill="#5E8AB9" transform="translate(104.75,323.625)"/>
<path d="M0 0 C0 1.32 0 2.64 0 4 C-3.96 4 -7.92 4 -12 4 C-12 5.32 -12 6.64 -12 8 C-10.68 8.66 -9.36 9.32 -8 10 C-8 10.66 -8 11.32 -8 12 C-14.75 11.25 -14.75 11.25 -17 9 C-17.4375 5.5625 -17.4375 5.5625 -17 2 C-12.57834719 -2.42165281 -5.58107398 -1.86035799 0 0 Z " fill="#4F80B4" transform="translate(139,325)"/>
<path d="M0 0 C-1.39330742 3.1857029 -3.02896738 5.19822217 -5.5625 7.5625 C-7.99626295 9.8343494 -8.92259794 10.76779382 -10 14 C-9.14019531 13.98839844 -8.28039062 13.97679687 -7.39453125 13.96484375 C0.7925052 13.90234729 8.84864083 14.24173403 17 15 C17 15.66 17 16.32 17 17 C10.07 17 3.14 17 -4 17 C-4 16.67 -4 16.34 -4 16 C-6.64 15.67 -9.28 15.34 -12 15 C-12.796875 13.359375 -12.796875 13.359375 -13 11 C-11.4811454 8.85925217 -10.04905937 7.12279131 -8.25 5.25 C-7.79367188 4.74339844 -7.33734375 4.23679688 -6.8671875 3.71484375 C-3.40267015 0 -3.40267015 0 0 0 Z " fill="#F5DCA8" transform="translate(187,132)"/>
<path d="M0 0 C2.29296875 0.0390625 2.29296875 0.0390625 5 1 C6.38721973 3.52167058 7.3687731 5.69571202 8.3125 8.375 C8.57611328 9.06078125 8.83972656 9.7465625 9.11132812 10.453125 C10.22425085 13.4247732 11 15.80482639 11 19 C11.66 19.33 12.32 19.66 13 20 C12.01 20 11.02 20 10 20 C10 19.34 10 18.68 10 18 C9.34 18 8.68 18 8 18 C7.67 18.66 7.34 19.32 7 20 C6.54625 19.071875 6.0925 18.14375 5.625 17.1875 C4.0578367 13.96078611 4.0578367 13.96078611 2 11 C1.55888435 9.11845117 1.1890733 7.21937362 0.875 5.3125 C0.70742187 4.31863281 0.53984375 3.32476562 0.3671875 2.30078125 C0.24601563 1.54152344 0.12484375 0.78226562 0 0 Z " fill="#5F8CB8" transform="translate(244,324)"/>
<path d="M0 0 C1.23556641 0.01740234 1.23556641 0.01740234 2.49609375 0.03515625 C3.32238281 0.04417969 4.14867187 0.05320312 5 0.0625 C5.63808594 0.07410156 6.27617187 0.08570313 6.93359375 0.09765625 C5.53984303 2.88515769 3.77114514 2.99031912 0.93359375 4.09765625 C-1.57488143 6.2363313 -1.57488143 6.2363313 -2.06640625 11.09765625 C2.22359375 11.09765625 6.51359375 11.09765625 10.93359375 11.09765625 C10.93359375 11.42765625 10.93359375 11.75765625 10.93359375 12.09765625 C9.56074219 12.13632812 9.56074219 12.13632812 8.16015625 12.17578125 C6.37738281 12.26085937 6.37738281 12.26085937 4.55859375 12.34765625 C3.37523437 12.3940625 2.191875 12.44046875 0.97265625 12.48828125 C-2.17932378 12.75414424 -2.17932378 12.75414424 -3.48046875 15.14453125 C-3.67382812 15.7890625 -3.8671875 16.43359375 -4.06640625 17.09765625 C-4.72640625 16.76765625 -5.38640625 16.43765625 -6.06640625 16.09765625 C-6.6216863 5.50620351 -6.6216863 5.50620351 -3.06640625 1.09765625 C-2.06640625 0.09765625 -2.06640625 0.09765625 0 0 Z " fill="#4A7AAF" transform="translate(277.06640625,324.90234375)"/>
<path d="M0 0 C2.63995097 0.07186799 3.79303107 0.14408192 6.0625 1.5625 C7.0625 3.3125 7.0625 3.3125 7.0625 7.3125 C2.4425 7.3125 -2.1775 7.3125 -6.9375 7.3125 C-5.56330645 0.44153226 -5.56330645 0.44153226 0 0 Z " fill="#E3EBF2" transform="translate(105.9375,327.6875)"/>
<path d="M0 0 C3.5625 0.25 3.5625 0.25 6.5625 2.25 C6.5625 3.9 6.5625 5.55 6.5625 7.25 C2.2725 7.25 -2.0175 7.25 -6.4375 7.25 C-5.06111624 0.36808118 -5.06111624 0.36808118 0 0 Z " fill="#E7EFF4" transform="translate(281.4375,327.75)"/>
<path d="M0 0 C1.65 0 3.3 0 5 0 C5 4.29 5 8.58 5 13 C5.66 13 6.32 13 7 13 C7.33 12.01 7.66 11.02 8 10 C11.63 10 15.26 10 19 10 C19 10.33 19 10.66 19 11 C15.7 11.33 12.4 11.66 9 12 C11.97 12.495 11.97 12.495 15 13 C15 13.33 15 13.66 15 14 C8.375 15 8.375 15 5 15 C4 14 4 14 3.90234375 11.05859375 C3.91394531 9.86363281 3.92554688 8.66867187 3.9375 7.4375 C3.94652344 6.23996094 3.95554688 5.04242188 3.96484375 3.80859375 C3.97644531 2.88175781 3.98804688 1.95492188 4 1 C3.01 1 2.02 1 1 1 C1 12.22 1 23.44 1 35 C0.67 35 0.34 35 0 35 C0 23.45 0 11.9 0 0 Z " fill="#90B0CE" transform="translate(146,314)"/>
<path d="M0 0 C4.25209792 4.12324647 8.13635705 8.51282966 12 13 C8.07290865 13 7.1810287 11.72099538 4.3125 9.125 C3.50425781 8.40570313 2.69601563 7.68640625 1.86328125 6.9453125 C0 5 0 5 0 3 C-0.66 3 -1.32 3 -2 3 C-1.98428955 3.83192871 -1.98428955 3.83192871 -1.96826172 4.68066406 C-1.92657996 7.20372959 -1.90063562 9.72672253 -1.875 12.25 C-1.85824219 13.12269531 -1.84148437 13.99539062 -1.82421875 14.89453125 C-1.81777344 15.73886719 -1.81132812 16.58320313 -1.8046875 17.453125 C-1.79421387 18.22817383 -1.78374023 19.00322266 -1.77294922 19.80175781 C-2.02673444 22.25883539 -2.77555848 23.87311542 -4 26 C-4.91657981 20.61509359 -5.11138159 15.45769811 -5 10 C-4.67 10 -4.34 10 -4 10 C-3.67 7.36 -3.34 4.72 -3 2 C-2.01 2 -1.02 2 0 2 C0 1.34 0 0.68 0 0 Z " fill="#F0D6A6" transform="translate(175,149)"/>
<path d="M0 0 C1.21816406 0.03480469 1.21816406 0.03480469 2.4609375 0.0703125 C3.68683594 0.09738281 3.68683594 0.09738281 4.9375 0.125 C5.87722656 0.15980469 5.87722656 0.15980469 6.8359375 0.1953125 C6.8359375 2.1753125 6.8359375 4.1553125 6.8359375 6.1953125 C3.62142481 7.80256885 0.39981214 7.25279435 -3.1640625 7.1953125 C-3.7890625 4.8203125 -3.7890625 4.8203125 -4.1640625 2.1953125 C-2.1640625 0.1953125 -2.1640625 0.1953125 0 0 Z " fill="#EEF5F8" transform="translate(227.1640625,337.8046875)"/>
<path d="M0 0 C0.99 0.33 1.98 0.66 3 1 C5.99662439 7.22375834 6.63498398 13.15280287 7 20 C6.01 20 5.02 20 4 20 C3.32550034 17.60612843 2.66023359 15.21030779 2 12.8125 C1.80921875 12.13896484 1.6184375 11.46542969 1.421875 10.77148438 C0.4174164 7.09444844 -0.23704741 3.8149818 0 0 Z " fill="#487AAD" transform="translate(196,324)"/>
<path d="M0 0 C0.66 2.31 1.32 4.62 2 7 C4.64 7.33 7.28 7.66 10 8 C10 8.66 10 9.32 10 10 C7.67313547 11.16343227 6.15278587 11.19895988 3.5625 11.25 C2.78003906 11.27578125 1.99757812 11.3015625 1.19140625 11.328125 C-1 11 -1 11 -2.76171875 9.67578125 C-4.66490655 7.10017379 -4.39536735 5.09704422 -4 2 C-1 0 -1 0 0 0 Z " fill="#4980B6" transform="translate(223,338)"/>
<path d="M0 0 C0.33 0 0.66 0 1 0 C0.88541307 1.43836751 0.75790884 2.87570966 0.625 4.3125 C0.55539062 5.11300781 0.48578125 5.91351563 0.4140625 6.73828125 C0 9 0 9 -2 12 C-4.5625 12.25 -4.5625 12.25 -7 12 C-8 11 -8 11 -8.0625 7.9375 C-8.041875 6.968125 -8.02125 5.99875 -8 5 C-7.34 5 -6.68 5 -6 5 C-6 5.66 -6 6.32 -6 7 C-5.01 7 -4.02 7 -3 7 C-2.814375 5.824375 -2.814375 5.824375 -2.625 4.625 C-2 2 -2 2 0 0 Z " fill="#4A7EB2" transform="translate(260,337)"/>
<path d="M0 0 C17.16 0 34.32 0 52 0 C51.67 0.66 51.34 1.32 51 2 C50.08917915 1.99666908 50.08917915 1.99666908 49.15995789 1.99327087 C42.84989001 1.97117688 36.53983309 1.95607613 30.22973633 1.94506836 C27.873612 1.94003425 25.5174908 1.93320654 23.16137695 1.92456055 C19.7781497 1.9124547 16.39496368 1.90676251 13.01171875 1.90234375 C11.95538742 1.89718246 10.89905609 1.89202118 9.81071472 1.88670349 C8.33952934 1.88659019 8.33952934 1.88659019 6.83862305 1.88647461 C5.97480515 1.884254 5.11098724 1.88203339 4.22099304 1.87974548 C1.82540879 1.91126684 1.82540879 1.91126684 -1 3 C-0.67 2.01 -0.34 1.02 0 0 Z " fill="#719EC4" transform="translate(66,151)"/>
<path d="M0 0 C0.66 0.99 1.32 1.98 2 3 C2.66 2.67 3.32 2.34 4 2 C4.33 3.32 4.66 4.64 5 6 C5.99 4.68 6.98 3.36 8 2 C7.54177532 5.46941546 7.10868317 8.67395049 6 12 C4.02 12 2.04 12 0 12 C-1.00007341 8.8886605 -0.87515553 7.11166412 0 4 C0 2.68 0 1.36 0 0 Z " fill="#6C99C3" transform="translate(202,337)"/>
<path d="M0 0 C0.99 0 1.98 0 3 0 C5.35119399 3.52679099 5.21443452 5.02879485 5.125 9.1875 C5.10695312 10.27417969 5.08890625 11.36085938 5.0703125 12.48046875 C5.03550781 13.72763672 5.03550781 13.72763672 5 15 C4.01 15.495 4.01 15.495 3 16 C3 14.35 3 12.7 3 11 C0.03 10.67 -2.94 10.34 -6 10 C-6 9.67 -6 9.34 -6 9 C-3.69 9 -1.38 9 1 9 C0.67 6.03 0.34 3.06 0 0 Z " fill="#3F73AB" transform="translate(233,326)"/>
<path d="M0 0 C0.33 0.66 0.66 1.32 1 2 C-0.07121094 2.06058594 -1.14242187 2.12117187 -2.24609375 2.18359375 C-3.64324391 2.26798537 -5.04037857 2.35263406 -6.4375 2.4375 C-7.49807617 2.49647461 -7.49807617 2.49647461 -8.58007812 2.55664062 C-12.08690419 2.47624438 -12.08690419 2.47624438 -15 4 C-17.18639453 4.07258946 -19.37500389 4.08373783 -21.5625 4.0625 C-23.35880859 4.04896484 -23.35880859 4.04896484 -25.19140625 4.03515625 C-26.11824219 4.02355469 -27.04507813 4.01195312 -28 4 C-28 3.01 -28 2.02 -28 1 C-18.76 0.67 -9.52 0.34 0 0 Z " fill="#F0CE8A" transform="translate(167,145)"/>
<path d="M0 0 C16.83 0 33.66 0 51 0 C51 0.33 51 0.66 51 1 C50.3927861 1.01030746 49.7855722 1.02061493 49.15995789 1.03123474 C42.84977387 1.13927232 36.53973345 1.25387267 30.22973633 1.37231445 C27.87364705 1.41567208 25.51752617 1.45734654 23.16137695 1.49731445 C19.77806062 1.55499676 16.39490343 1.61869731 13.01171875 1.68359375 C11.95538742 1.70030624 10.89905609 1.71701874 9.81071472 1.73423767 C8.82992447 1.75418289 7.84913422 1.77412811 6.83862305 1.79467773 C5.97480515 1.81022202 5.11098724 1.8257663 4.22099304 1.84178162 C1.82634575 1.92009739 1.82634575 1.92009739 -1 3 C-0.67 2.01 -0.34 1.02 0 0 Z " fill="#A2CCE5" transform="translate(66,61)"/>
<path d="M0 0 C16.83 0 33.66 0 51 0 C51 0.33 51 0.66 51 1 C50.3927861 1.01030746 49.7855722 1.02061493 49.15995789 1.03123474 C42.84977387 1.13927232 36.53973345 1.25387267 30.22973633 1.37231445 C27.87364705 1.41567208 25.51752617 1.45734654 23.16137695 1.49731445 C19.77806062 1.55499676 16.39490343 1.61869731 13.01171875 1.68359375 C11.95538742 1.70030624 10.89905609 1.71701874 9.81071472 1.73423767 C8.82992447 1.75418289 7.84913422 1.77412811 6.83862305 1.79467773 C5.97480515 1.81022202 5.11098724 1.8257663 4.22099304 1.84178162 C1.82634575 1.92009739 1.82634575 1.92009739 -1 3 C-0.67 2.01 -0.34 1.02 0 0 Z " fill="#C8E6F2" transform="translate(146,15)"/>
<path d="M0 0 C0.56561146 5.65611463 -1.28608722 9.22642128 -4 14 C-4.99 14 -5.98 14 -7 14 C-6.71517632 12.58194169 -6.42181856 11.16559621 -6.125 9.75 C-5.96257812 8.96109375 -5.80015625 8.1721875 -5.6328125 7.359375 C-5.00106448 5.00396882 -4.24959008 3.09190636 -3 1 C-1 0 -1 0 0 0 Z " fill="#5583B3" transform="translate(81,322)"/>
<path d="M0 0 C0.33 0 0.66 0 1 0 C0.88541307 1.43836751 0.75790884 2.87570966 0.625 4.3125 C0.55539063 5.11300781 0.48578125 5.91351563 0.4140625 6.73828125 C0 9 0 9 -2 12 C-4.625 12.1875 -4.625 12.1875 -7 12 C-7 9.69 -7 7.38 -7 5 C-6.34 5 -5.68 5 -5 5 C-5 5.99 -5 6.98 -5 8 C-4.01 8 -3.02 8 -2 8 C-2.04125 7.05125 -2.0825 6.1025 -2.125 5.125 C-2 2 -2 2 0 0 Z " fill="#4078B0" transform="translate(188,336)"/>
<path d="M0 0 C1.875 0.3125 1.875 0.3125 4 1 C6.4294516 4.6441774 6.16179575 6.71241272 6 11 C1.71 11 -2.58 11 -7 11 C-7 10.67 -7 10.34 -7 10 C-2.545 9.505 -2.545 9.505 2 9 C1.41196203 5.97580475 0.77321882 2.98241547 0 0 Z " fill="#4479B2" transform="translate(110,326)"/>
<path d="M0 0 C1.65 0 3.3 0 5 0 C4.25749403 4.08378283 3.17076699 8.01939223 2 12 C1.34 11.01 0.68 10.02 0 9 C-0.66 10.98 -1.32 12.96 -2 15 C-3.31534494 11.34142468 -2.65468309 8.91973519 -1.5625 5.25 C-1.27503906 4.26515625 -0.98757812 3.2803125 -0.69140625 2.265625 C-0.46324219 1.51796875 -0.23507813 0.7703125 0 0 Z " fill="#5D87B6" transform="translate(211,316)"/>
<path d="M0 0 C-0.33 1.32 -0.66 2.64 -1 4 C-4.96 4 -8.92 4 -13 4 C-13 3.01 -13 2.02 -13 1 C-8.62426048 0.40667939 -4.42471556 -0.13827236 0 0 Z " fill="#5384B8" transform="translate(291,345)"/>
<path d="M0 0 C2.31309705 0.11341637 4.62550185 0.24103807 6.9375 0.375 C8.86916016 0.47941406 8.86916016 0.47941406 10.83984375 0.5859375 C12.40412109 0.79089844 12.40412109 0.79089844 14 1 C14.33 1.66 14.66 2.32 15 3 C12.52621876 4.23689062 10.82084683 4.13310087 8.0625 4.125 C7.18722656 4.12757813 6.31195313 4.13015625 5.41015625 4.1328125 C3 4 3 4 0 3 C0 2.01 0 1.02 0 0 Z " fill="#4B82B6" transform="translate(123,345)"/>
<path d="M0 0 C0.33 0.66 0.66 1.32 1 2 C0.67 2.99 0.34 3.98 0 5 C0.99 5 1.98 5 3 5 C2.34 6.98 1.68 8.96 1 11 C0.67 10.34 0.34 9.68 0 9 C-1.65 9.33 -3.3 9.66 -5 10 C-5.33 8.02 -5.66 6.04 -6 4 C-5.01 4.99 -4.02 5.98 -3 7 C-2.01 4.69 -1.02 2.38 0 0 Z " fill="#759BC0" transform="translate(74,331)"/>
<path d="M0 0 C0.33 0 0.66 0 1 0 C1.24609375 2.26953125 1.24609375 2.26953125 1 5 C-0.71484375 6.94921875 -0.71484375 6.94921875 -2.9375 8.6875 C-5.93877429 10.95941634 -5.93877429 10.95941634 -8 14 C-8.66 14 -9.32 14 -10 14 C-8.43810398 10.50004453 -6.33666309 7.72827143 -3.9375 4.75 C-2.86822266 3.41195312 -2.86822266 3.41195312 -1.77734375 2.046875 C-0.89755859 1.03367188 -0.89755859 1.03367188 0 0 Z " fill="#F0DAAE" transform="translate(167,149)"/>
<path d="M0 0 C0.7734375 0.00644531 1.546875 0.01289063 2.34375 0.01953125 C4.5 0.1875 4.5 0.1875 7.5 1.1875 C7.5 2.5075 7.5 3.8275 7.5 5.1875 C3.54 5.1875 -0.42 5.1875 -4.5 5.1875 C-4.17 4.5275 -3.84 3.8675 -3.5 3.1875 C-1.19 3.1875 1.12 3.1875 3.5 3.1875 C3.5 2.5275 3.5 1.8675 3.5 1.1875 C-0.13 1.5175 -3.76 1.8475 -7.5 2.1875 C-4.35388747 0.09009164 -3.58811922 -0.06578219 0 0 Z " fill="#729AC4" transform="translate(131.5,323.8125)"/>
<path d="M0 0 C0.33 0 0.66 0 1 0 C1 7.59 1 15.18 1 23 C0.67 23 0.34 23 0 23 C-0.33 18.05 -0.66 13.1 -1 8 C-1.66 8 -2.32 8 -3 8 C-1.125 2.25 -1.125 2.25 0 0 Z " fill="#E8EFF4" transform="translate(81,326)"/>
<path d="M0 0 C0 0.99 0 1.98 0 3 C-4.62 3 -9.24 3 -14 3 C-14.33 2.34 -14.66 1.68 -15 1 C-13.06263299 0.83179449 -11.12510094 0.66548905 -9.1875 0.5 C-7.56908203 0.36078125 -7.56908203 0.36078125 -5.91796875 0.21875 C-3 0 -3 0 0 0 Z " fill="#4078B0" transform="translate(115,345)"/>
<path d="M0 0 C3 1 3 1 3.984375 2.70703125 C4.23703125 3.40183594 4.4896875 4.09664063 4.75 4.8125 C5.01296875 5.49957031 5.2759375 6.18664062 5.546875 6.89453125 C6.06056958 9.28143969 5.76282269 10.70637773 5 13 C4.67 11.02 4.34 9.04 4 7 C3.34 7 2.68 7 2 7 C1.67 7.99 1.34 8.98 1 10 C0.67 6.7 0.34 3.4 0 0 Z " fill="#5783B2" transform="translate(196,324)"/>
<path d="M0 0 C2.475 0.495 2.475 0.495 5 1 C5 3.64 5 6.28 5 9 C4.34 9 3.68 9 3 9 C0 3.375 0 3.375 0 0 Z " fill="#5680B1" transform="translate(244,324)"/>
<path d="M0 0 C0.66 0.33 1.32 0.66 2 1 C1.5020163 4.73487777 1.12508244 6.81237635 -1 10 C-3 7 -3 7 -2.625 4.8125 C-2.41875 4.214375 -2.2125 3.61625 -2 3 C-2 3.66 -2 4.32 -2 5 C-1.34 5 -0.68 5 0 5 C0 3.35 0 1.7 0 0 Z " fill="#82A3C4" transform="translate(249,328)"/>
<path d="M0 0 C3.3 0 6.6 0 10 0 C9.67 0.66 9.34 1.32 9 2 C6.93359375 2.6328125 6.93359375 2.6328125 4.4375 3.125 C3.19806641 3.37636719 3.19806641 3.37636719 1.93359375 3.6328125 C1.29550781 3.75398438 0.65742188 3.87515625 0 4 C0 2.68 0 1.36 0 0 Z " fill="#4B7FB4" transform="translate(221,325)"/>
<path d="M0 0 C0.99 0 1.98 0 3 0 C4.125 1.75 4.125 1.75 5 4 C4.125 6.25 4.125 6.25 3 8 C2.34 8 1.68 8 1 8 C0.67 5.36 0.34 2.72 0 0 Z " fill="#5082B6" transform="translate(233,326)"/>
<path d="M0 0 C2.97 0 5.94 0 9 0 C9 0.99 9 1.98 9 3 C5.7 3 2.4 3 -1 3 C-0.67 2.01 -0.34 1.02 0 0 Z " fill="#5F8EBE" transform="translate(225,334)"/>
<path d="M0 0 C1.32 0.33 2.64 0.66 4 1 C4 2.98 4 4.96 4 7 C3.34 7 2.68 7 2 7 C0.5393715 4.35261084 0 3.10551666 0 0 Z " fill="#4675AA" transform="translate(64,333)"/>
<path d="M0 0 C1.65 0 3.3 0 5 0 C4.38722388 2.96175123 3.74627478 4.38058783 2 7 C2 5.35 2 3.7 2 2 C1.34 2 0.68 2 0 2 C0 1.34 0 0.68 0 0 Z " fill="#80A1C3" transform="translate(263,324)"/>
<path d="M0 0 C1.875 0.3125 1.875 0.3125 4 1 C4.66 1.99 5.32 2.98 6 4 C5.34 4.66 4.68 5.32 4 6 C2.62437146 4.71034824 1.29233607 3.37310707 0 2 C0 1.34 0 0.68 0 0 Z " fill="#F3D38D" transform="translate(155,132)"/>
<path d="M0 0 C1.65 0 3.3 0 5 0 C5.33 0.99 5.66 1.98 6 3 C4.02 3 2.04 3 0 3 C0 2.01 0 1.02 0 0 Z " fill="#B9BBBD" transform="translate(150,355)"/>
<path d="M0 0 C0.33 0 0.66 0 1 0 C2 7.625 2 7.625 2 11 C1.01 11.495 1.01 11.495 0 12 C0 8.04 0 4.08 0 0 Z " fill="#F3C76B" transform="translate(173,132)"/>
</svg>
